HIERARCHY
ROOT Hips
{
	OFFSET 0.00000 0.00000 0.00000
	CHANNELS 6 Xposition Yposition Zposition Zrotation Yrotation Xrotation 
	JOINT LHipJoint
	{
		OFFSET 0 0 0
		CHANNELS 3 Zrotation Yrotation Xrotation
		JOINT LeftUpLeg
		{
			OFFSET 1.37590 -1.78394 0.89329
			CHANNELS 3 Zrotation Yrotation Xrotation
			JOINT LeftLeg
			{
				OFFSET 2.47928 -6.81178 0.00000
				CHANNELS 3 Zrotation Yrotation Xrotation
				JOINT LeftFoot
				{
					OFFSET 2.63345 -7.23535 0.00000
					CHANNELS 3 Zrotation Yrotation Xrotation
					JOINT LeftToeBase
					{
						OFFSET 0.23938 -0.65768 2.27012
						CHANNELS 3 Zrotation Yrotation Xrotation
						End Site
						{
							OFFSET 0.00000 -0.00000 1.18363
						}
					}
				}
			}
		}
	}
	JOINT RHipJoint
	{
		OFFSET 0 0 0
		CHANNELS 3 Zrotation Yrotation Xrotation
		JOINT RightUpLeg
		{
			OFFSET -1.33617 -1.78394 0.89329
			CHANNELS 3 Zrotation Yrotation Xrotation
			JOINT RightLeg
			{
				OFFSET -2.56922 -7.05888 0.00000
				CHANNELS 3 Zrotation Yrotation Xrotation
				JOINT RightFoot
				{
					OFFSET -2.56568 -7.04915 0.00000
					CHANNELS 3 Zrotation Yrotation Xrotation
					JOINT RightToeBase
					{
						OFFSET -0.27533 -0.75646 2.18105
						CHANNELS 3 Zrotation Yrotation Xrotation
						End Site
						{
							OFFSET -0.00000 -0.00000 1.15233
						}
					}
				}
			}
		}
	}
	JOINT LowerBack
	{
		OFFSET 0 0 0
		CHANNELS 3 Zrotation Yrotation Xrotation
		JOINT Spine
		{
			OFFSET 0.06190 2.15152 -0.00935
			CHANNELS 3 Zrotation Yrotation Xrotation
			JOINT Spine1
			{
				OFFSET 0.06334 2.15332 0.00872
				CHANNELS 3 Zrotation Yrotation Xrotation
				JOINT Neck
				{
					OFFSET 0 0 0
					CHANNELS 3 Zrotation Yrotation Xrotation
					JOINT Neck1
					{
						OFFSET -0.04202 1.66908 0.23524
						CHANNELS 3 Zrotation Yrotation Xrotation
						JOINT Head
						{
							OFFSET 0.07510 1.69357 -0.24440
							CHANNELS 3 Zrotation Yrotation Xrotation
							End Site
							{
								OFFSET 0.02556 1.71719 -0.11000
							}
						}
					}
				}
				JOINT LeftShoulder
				{
					OFFSET 0 0 0
					CHANNELS 3 Zrotation Yrotation Xrotation
					JOINT LeftArm
					{
						OFFSET 3.67168 1.26306 -0.41342
						CHANNELS 3 Zrotation Yrotation Xrotation
						JOINT LeftForeArm
						{
							OFFSET 4.68510 -0.00000 -0.00000
							CHANNELS 3 Zrotation Yrotation Xrotation
							JOINT LeftHand
							{
								OFFSET 3.39626 -0.00000 -0.00000
								CHANNELS 3 Zrotation Yrotation Xrotation
								JOINT LeftFingerBase
								{
									OFFSET 0 0 0
									CHANNELS 3 Zrotation Yrotation Xrotation
									JOINT LeftHandIndex1
									{
										OFFSET 0.48608 -0.00000 -0.00000
										CHANNELS 3 Zrotation Yrotation Xrotation
										End Site
										{
											OFFSET 0.39189 -0.00000 -0.00000
										}
									}
								}
								JOINT LThumb
								{
									OFFSET 0 0 0
									CHANNELS 3 Zrotation Yrotation Xrotation
									End Site
									{
										OFFSET 0.39787 -0.00000 0.39787
									}
								}
							}
						}
					}
				}
				JOINT RightShoulder
				{
					OFFSET 0 0 0
					CHANNELS 3 Zrotation Yrotation Xrotation
					JOINT RightArm
					{
						OFFSET -3.04136 1.42992 -0.76390
						CHANNELS 3 Zrotation Yrotation Xrotation
						JOINT RightForeArm
						{
							OFFSET -5.55576 -0.00000 -0.00000
							CHANNELS 3 Zrotation Yrotation Xrotation
							JOINT RightHand
							{
								OFFSET -3.32774 -0.00000 -0.00000
								CHANNELS 3 Zrotation Yrotation Xrotation
								JOINT RightFingerBase
								{
									OFFSET 0 0 0
									CHANNELS 3 Zrotation Yrotation Xrotation
									JOINT RightHandIndex1
									{
										OFFSET -0.50763 -0.00000 -0.00000
										CHANNELS 3 Zrotation Yrotation Xrotation
										End Site
										{
											OFFSET -0.40926 -0.00000 -0.00000
										}
									}
								}
								JOINT RThumb
								{
									OFFSET 0 0 0
									CHANNELS 3 Zrotation Yrotation Xrotation
									End Site
									{
										OFFSET -0.41551 -0.00000 0.41551
									}
								}
							}
						}
					}
				}
			}
		}
	}
}
MOTION
Frames: 9
Frame Time: 0.0606061
0.00 0.00 0.00 -478.3740 -79.9688 486.1810 0.0000 0.0000 0.0000 -5.2314 -5.6848 -35.5173 7.4222 15.6773 50.4534 0.3226 2.0715 -11.6911 0.6051 -4.9793 -13.8497 0.0000 0.0000 0.0000 31.2320 7.6699 -8.7275 -1.2525 -7.0952 19.9978 -0.5086 -3.5483 -15.2370 -0.4158 -4.1393 11.4688 7.6349 0.1303 3.0416 5.7709 0.2002 1.2604 1.6789 0.0112 -0.3860 -11.8618 -12.5696 -6.0972 16.4677 -18.4346 11.0651 5.3617 -8.6140 7.0454 0.0000 0.0000 0.0000 -88.3901 20.3588 11.3507 19.4624 -29.9891 -5.2600 -0.0000 -0.0000 23.5494 11.1483 18.6897 3.6134 -7.1250 0.0000 -0.0000 -16.4481 48.2944 -1.3712 0.0000 0.0000 0.0000 68.4720 -0.8777 18.4677 -111.8786 58.1117 -78.8273 0.0000 0.0000 1.2337 -34.4624 -29.2493 18.5384 7.1250 -0.0000 -0.0000 -4.7262 -64.1053 2.1901
0.00 0.00 0.00 -482.2000 -79.3442 491.2920 0.0000 0.0000 0.0000 -3.3311 -7.7789 -38.6612 4.2964 12.5447 37.6871 0.1017 3.8933 -8.7126 0.6163 -5.0241 -13.9773 0.0000 0.0000 0.0000 31.3460 7.6953 -7.5590 -1.3834 -7.4422 21.0323 -0.7764 -2.6054 -17.7849 -0.2186 -3.0101 8.3069 7.9322 0.2847 3.4542 5.6640 0.4767 1.1334 1.3938 0.1389 -0.7380 -13.3704 -14.1151 -4.0555 18.6802 -20.9329 9.9558 6.0338 -9.9064 7.1436 -0.0000 -0.0000 0.0000 -89.0393 21.9668 9.2799 18.7814 -29.1461 -4.9239 -0.0000 -0.0000 23.8311 11.4677 17.8320 3.5548 -7.1250 0.0000 -0.0000 -15.8321 47.5062 -1.0030 -0.0000 -0.0000 0.0000 61.5647 2.0377 27.2082 -128.6338 53.5319 -92.7309 0.0000 0.0000 3.5693 -40.2174 -30.1568 23.0156 7.1250 -0.0000 -0.0000 -12.8685 -66.8260 6.8133
0.00 0.00 0.00 -486.2860 -78.5242 496.5360 0.0000 0.0000 0.0000 -0.2689 -10.1775 -37.8687 1.4179 7.5306 21.2972 -0.0056 4.9919 -6.9355 0.7020 -5.3554 -14.9250 0.0000 0.0000 0.0000 31.3508 6.9862 -4.9556 -1.4157 -7.5251 21.2807 -1.0600 -1.3902 -20.0006 -0.0687 -1.6911 4.6528 7.6361 0.1054 3.1713 5.1894 0.2226 1.0849 1.0734 0.0266 -0.6398 -15.6646 -15.9947 -1.6396 22.9785 -24.1109 7.3571 7.3451 -11.5966 7.3535 0.0000 0.0000 0.0000 -89.4670 20.6381 3.4612 15.8911 -25.3728 -3.5992 -0.0000 -0.0000 27.4004 11.5848 16.0320 3.2403 -7.1250 0.0000 -0.0000 -15.1046 45.7652 -0.2919 0.0000 0.0000 0.0000 47.9014 3.8014 50.6310 -141.1374 47.3814 -102.4024 0.0000 0.0000 7.4061 -37.7128 -19.5860 14.5317 7.1250 -0.0000 -0.0000 -10.0166 -53.9186 2.2132
0.00 0.00 0.00 -492.5700 -78.1800 501.2370 0.0000 0.0000 0.0000 -3.0598 -7.9787 -36.2598 2.0357 8.9401 25.6083 -0.0002 0.6117 -0.8200 0.3259 -3.6693 -10.1481 0.0000 0.0000 0.0000 28.4763 4.6653 -1.3955 -3.4420 -11.3783 33.5665 -0.8500 1.2742 -17.0373 -0.5135 4.5932 -12.7519 6.6979 -1.9796 3.0201 2.4957 -2.4596 0.6167 -1.0737 -1.2759 -1.2262 -18.2537 -18.6852 2.4388 30.2660 -29.1321 2.2716 9.2639 -14.5719 7.8413 -0.0000 0.0000 0.0000 -85.4037 16.9115 -3.1624 12.8647 -21.0887 -2.4044 -0.0000 -0.0000 32.8649 10.5492 14.4083 2.6531 -7.1250 0.0000 -0.0000 -15.5184 44.0587 0.3698 -0.0000 0.0000 0.0000 8.2973 9.0153 44.2529 -122.6776 55.5532 -87.8771 0.0000 0.0000 17.8468 -37.4553 -12.1589 9.1660 7.1250 -0.0000 -0.0000 -9.5614 -44.9485 -0.0123
0.00 0.00 0.00 -493.1670 -78.5624 501.2010 0.0000 0.0000 0.0000 -4.3837 -7.6622 -35.1031 2.2381 9.3454 26.8819 0.0005 -0.2010 -0.4043 0.1209 -2.2417 -6.1742 0.0000 0.0000 0.0000 27.6257 4.5843 -2.1049 -4.2369 -12.4692 37.4125 -0.5444 0.7099 -13.7115 -0.4999 4.5328 -12.5807 6.3894 -2.3275 3.0421 2.0565 -2.9152 0.5258 -1.3285 -1.5013 -1.3723 -18.2129 -18.9454 2.6416 30.4094 -29.5869 2.1144 9.2051 -14.8227 7.8920 0.0000 -0.0000 0.0000 -84.5445 16.3161 -3.2243 12.9903 -21.2730 -2.4498 -0.0000 -0.0000 32.1659 11.3660 14.7680 2.9333 -7.1250 0.0000 -0.0000 -14.9021 44.5017 0.1876 0.0000 -0.0000 0.0000 5.1223 9.6112 38.0832 -102.8028 59.3715 -71.0641 0.0000 0.0000 19.7782 -37.0378 -13.4026 9.9211 7.1250 -0.0000 -0.0000 -9.2120 -46.3919 0.3191
0.00 0.00 0.00 -500.0390 -80.7844 505.2200 0.0000 0.0000 0.0000 -11.4504 -5.8792 -25.0440 2.2388 9.3466 26.8857 0.0474 -3.0136 -4.1174 0.0065 0.5189 1.4258 0.0000 0.0000 0.0000 22.0408 3.6500 -8.7876 -8.6363 -16.5679 54.8237 -0.0899 -10.4117 8.6623 -0.0755 -1.7728 4.8781 4.8000 -2.6657 2.7725 1.1395 -3.3774 -0.5293 -1.3457 -1.7469 -2.3073 -18.8411 -20.3029 2.9454 28.3570 -30.8903 1.2836 8.3073 -15.4534 7.5539 0.0000 -0.0000 0.0000 -80.8225 9.3849 -1.4200 13.4050 -21.8778 -2.6023 -0.0000 -0.0000 30.7151 11.8925 17.6244 3.6484 -7.1250 0.0000 -0.0000 -15.3668 47.3611 -0.9159 0.0000 -0.0000 0.0000 -7.4840 19.5818 -14.3305 -17.0623 26.9398 -4.1155 0.0000 0.0000 19.4048 -10.4686 -22.1096 3.9782 7.1250 -0.0000 -0.0000 18.5582 -51.4742 -3.0475
0.00 0.00 0.00 -498.0980 -81.5617 502.9590 0.0000 0.0000 0.0000 -12.4720 -5.3788 -23.0278 2.1159 9.1035 26.1196 0.0554 -3.9128 -4.6677 0.0094 0.6260 1.7201 0.0000 0.0000 0.0000 21.2990 2.9072 -10.5886 -9.4304 -17.0768 57.5669 0.1067 -13.4599 8.0606 -0.0697 -1.7029 4.6853 5.1463 -2.6225 2.6925 1.0939 -3.3030 -0.8380 -1.5825 -1.7258 -2.5998 -18.8815 -20.4430 2.9681 28.0973 -30.7522 0.3755 8.2819 -15.4163 7.1836 -0.0000 0.0000 0.0000 -80.0149 8.0955 0.7739 14.3735 -23.2662 -2.9741 -0.0000 -0.0000 29.8722 11.3584 17.6583 3.4870 -7.1250 0.0000 -0.0000 -15.8695 47.3224 -0.9319 -0.0000 0.0000 0.0000 -11.0825 22.7309 -46.2862 -11.9197 19.6841 -2.0752 0.0000 0.0000 29.3573 -9.0436 -23.9934 3.7031 7.1250 -0.0000 -0.0000 20.8886 -53.0081 -4.2636
0.00 0.00 0.00 -418.0370 -85.9157 421.9080 0.0000 0.0000 0.0000 -18.0644 -3.4814 -8.3838 1.0406 6.4876 18.2059 0.0539 -7.0162 -6.1069 0.0107 0.6668 1.8324 0.0000 0.0000 0.0000 17.9322 0.2370 -22.5744 -10.4649 -17.6631 61.0312 1.1756 -18.7701 -7.3900 -0.3258 -3.6689 10.1471 4.4503 -4.9811 1.9621 1.6179 -6.4647 -2.6924 -0.4230 -3.3379 -4.1847 -17.4398 -19.2674 1.6324 25.5032 -28.2594 0.1981 7.8480 -14.1072 6.0824 0.0000 -0.0000 0.0000 -78.0560 6.8073 11.8779 32.2819 -42.7708 -12.9319 -0.0000 -0.0000 13.8832 19.9943 18.1489 6.4662 -7.1250 0.0000 -0.0000 -7.9256 49.0463 -0.7954 0.0000 -0.0000 0.0000 -19.9697 11.0318 -64.1441 -24.6925 35.8880 -8.1089 0.0000 0.0000 13.1081 -23.8720 -29.4544 12.2772 7.1250 -0.0000 -0.0000 8.5001 -61.4788 -3.4237
0.00 0.00 0.00 -436.6740 -89.2869 440.3500 0.0000 0.0000 0.0000 -21.8702 -1.2229 0.6963 0.6282 5.0717 14.1132 0.2286 -5.0963 -8.6885 0.1126 -2.1633 -5.9571 0.0000 0.0000 0.0000 13.9069 7.4381 -28.8871 -6.5022 -14.8979 46.9653 0.7093 -16.7174 -14.7258 -0.1231 -2.2619 6.2301 0.5996 -6.0624 1.9482 2.5826 -8.0327 -3.0752 2.7450 -3.9978 -3.9697 -16.7395 -18.1448 1.1058 19.9599 -26.2081 3.3401 6.4762 -12.9861 5.7078 0.0000 0.0000 0.0000 -77.2298 6.4016 12.2479 40.8921 -48.5897 -19.1057 -0.0000 -0.0000 11.2752 20.7729 16.9815 6.3218 -7.1250 0.0000 -0.0000 -6.8696 47.9474 -0.5018 0.0000 0.0000 0.0000 -13.9973 5.3496 -57.5263 -60.1288 56.3442 -34.4483 0.0000 0.0000 5.4793 -35.6093 -25.2902 17.0116 7.1250 -0.0000 -0.0000 -7.1130 -60.0029 2.6120
